<svg xmlns="http://www.w3.org/2000/svg" xmlns:xlink="http://www.w3.org/1999/xlink" width="113" height="132" viewBox="0 0 113 132"><defs><linearGradient id="a" x1="0.5" x2="0.5" y2="1" gradientUnits="objectBoundingBox"><stop offset="0" stop-color="#ffe8f0"/><stop offset="1" stop-color="#ecebeb"/></linearGradient><linearGradient id="b" x1="0.042" y1="0.435" x2="0.893" y2="0.769" gradientUnits="objectBoundingBox"><stop offset="0" stop-color="#ffa1c1"/><stop offset="1" stop-color="#f48fb1"/></linearGradient><linearGradient id="c" x1="0.042" y1="0.435" x2="0.893" y2="0.769" gradientUnits="objectBoundingBox"><stop offset="0" stop-color="#ef7aa2"/><stop offset="1" stop-color="#f48fb1"/></linearGradient><linearGradient id="f" x1="-0.135" y1="0.287" x2="0.94" y2="0.835" gradientUnits="objectBoundingBox"><stop offset="0" stop-color="#89d66d"/><stop offset="0.535" stop-color="#70d8ba"/><stop offset="1" stop-color="#6cd8c6"/></linearGradient></defs><g transform="translate(-175 -1047)"><g transform="translate(288 1047) rotate(90)" fill="url(#a)"><path d="M 96.12998962402344 109.5 L 35.8700065612793 109.5 C 35.33892822265625 109.5 34.84260940551758 109.2151184082031 34.57476806640625 108.7565231323242 L 4.49512767791748 57.25650024414063 C 4.222587585449219 56.78987884521484 4.222587585449219 56.21007919311523 4.49512767791748 55.74343872070313 L 34.57480621337891 4.243500232696533 C 34.84266662597656 3.784879922866821 35.33896636962891 3.5 35.87004852294922 3.5 L 96.12996673583984 3.5 C 96.66106414794922 3.5 97.15736389160156 3.784879922866821 97.42522430419922 4.243480205535889 L 127.5048675537109 55.74349975585938 C 127.7774276733398 56.21014022827148 127.7774276733398 56.78987884521484 127.5048675537109 57.25651931762695 L 97.42522430419922 108.7565231323242 C 97.15738677978516 109.2151184082031 96.66106414794922 109.5 96.12998962402344 109.5 Z" stroke="none"/><path d="M 37.01803588867188 7 L 8.106529235839844 56.49996185302734 L 37.01802825927734 106 L 94.98197937011719 106 L 123.8934783935547 56.5 L 94.98196411132813 7 L 37.01803588867188 7 M 35.87005615234375 0 L 96.12998199462891 0 C 97.90731811523438 0 99.55107879638672 0.9435272216796875 100.4474792480469 2.478263854980469 L 130.5271301269531 53.9782600402832 C 131.4371337890625 55.53628540039063 131.4371337890625 57.46371459960938 130.5271301269531 59.0217399597168 L 100.4474792480469 110.5217361450195 C 99.55107879638672 112.0564727783203 97.90731811523438 113 96.12998199462891 113 L 35.87001037597656 113 C 34.0926513671875 113 32.44891357421875 112.0564727783203 31.55250549316406 110.5217361450195 L 1.472869873046875 59.02171325683594 C 0.5628814697265625 57.46369171142578 0.5628814697265625 55.53626251220703 1.472869873046875 53.97823715209961 L 31.55252838134766 2.478263854980469 C 32.44893646240234 0.9435272216796875 34.09269714355469 0 35.87005615234375 0 Z" stroke="none" fill="#f48fb1"/></g><g transform="translate(178.771 1075.306)"><rect width="61.233" height="9.899" transform="matrix(0.891, 0.454, -0.454, 0.891, 4.494, 0.346)" fill="#f48fb1"/><rect width="59.711" height="9.899" transform="matrix(0.891, -0.454, 0.454, 0.891, 47.972, 27.108)" fill="#f48fb1"/><rect width="68.467" height="9.899" transform="translate(57.663 27.971) rotate(90)" fill="#f48fb1"/></g><text transform="matrix(1, 0.017, -0.017, 1, 210.675, 1083.241)" fill="#f48fb1" font-size="14" font-family="MI Lan Pro VF" letter-spacing="0.022em" opacity="0.13"><tspan x="0" y="0">KFZQ</tspan></text><text transform="translate(180.562 1134.177) rotate(29)" fill="#f48fb1" font-size="15" font-family="MI Lan Pro VF" letter-spacing="-0.113em" opacity="0.07"><tspan x="0" y="0">CHERRY</tspan></text><text transform="translate(241.554 1156.913) rotate(-29)" fill="#f48fb1" font-size="14" font-family="MI Lan Pro VF" letter-spacing="-0.034em" opacity="0.07"><tspan x="0" y="0">BLOCK</tspan></text><g transform="translate(200.319 1076.483)"><g transform="translate(0 0)"><path d="M181.566,544.519a16.456,16.456,0,1,1,2.3-14.023,11.69,11.69,0,1,1-2.3,14.023Z" transform="translate(-150.021 -488.063)" fill="#fff"/><path d="M557.238,688.022a16.345,16.345,0,0,0,1.639-5.651,12.14,12.14,0,0,1,17.5-3.794,11.7,11.7,0,0,1-18.34,14.246,12.1,12.1,0,0,1-.8-4.349Q557.23,688.249,557.238,688.022Z" transform="translate(-524.463 -633.633)" fill="url(#b)"/><path d="M639.092,710.325A11.7,11.7,0,0,1,625.839,727.1a12.139,12.139,0,0,1,13.253-16.778Z" transform="translate(-586.87 -664.825)" fill="url(#c)"/><path d="M199.879,589.945a16.464,16.464,0,0,1,23.028-23.018,16.464,16.464,0,0,1-23.028,23.018Z" transform="translate(-191.625 -529.657)" fill="url(#b)"/><path d="M219.56,703.113a16.468,16.468,0,0,1,27.676-11.064,16.468,16.468,0,0,1-27.676,11.064Z" transform="translate(-212.764 -644.037)" fill="url(#c)"/><path d="M445.419,249.227q6.7,0,12.133-6.064-5.429-6.064-12.133-6.064t-12.129,6.064A23.174,23.174,0,0,0,435.7,245.5,14.865,14.865,0,0,0,445.419,249.227Z" transform="translate(-410.056 -228.167)" fill="url(#f)"/><path d="M527.348,635.642a13.421,13.421,0,0,1-11.848-7.1l-.5-.938.609-.872a14.758,14.758,0,0,0,2.053-12.546l-.3-1.019.769-.728a13.429,13.429,0,1,1,9.214,23.2Zm-8.279-7.876a9.963,9.963,0,1,0,2.2-13.448,18.261,18.261,0,0,1,.441,4A18.074,18.074,0,0,1,519.069,627.766Z" transform="translate(-485.481 -571.27)"/><path d="M535.01,637.368a13.264,13.264,0,0,1-11.71-7.014l2.777-1.487a10.122,10.122,0,1,0,1.99-12.133l-2.16-2.293a13.272,13.272,0,1,1,9.1,22.928Z" transform="translate(-493.143 -573.153)"/><path d="M149.226,534.152a18.037,18.037,0,1,1,12.756-5.281,18.036,18.036,0,0,1-12.756,5.281Zm0-32.917a14.883,14.883,0,1,0,14.891,14.883,14.9,14.9,0,0,0-14.891-14.883Z" transform="translate(-131.192 -469.071)"/><path d="M378.7,89.379a1.472,1.472,0,0,1-1.468-1.118,1.37,1.37,0,0,1,.9-1.553,49.608,49.608,0,0,0,20.782-14.8,60.6,60.6,0,0,0,11.565-23.172,1.507,1.507,0,0,1,1.814-1.01,1.384,1.384,0,0,1,1.088,1.683A63.349,63.349,0,0,1,401.282,73.6a52.558,52.558,0,0,1-22.019,15.667A1.592,1.592,0,0,1,378.7,89.379Z" transform="translate(-358.279 -47.689)"/><path d="M420.007,231.9c-4.913,0-9.39-2.217-13.305-6.587l-.941-1.051.941-1.051c3.916-4.372,8.392-6.588,13.305-6.588s9.39,2.217,13.305,6.588l.941,1.051-.941,1.051c-3.912,4.371-8.389,6.587-13.305,6.587Zm-9.955-7.639a17,17,0,0,0,4.279,3.139,12.624,12.624,0,0,0,11.359,0,17.018,17.018,0,0,0,4.278-3.139,17,17,0,0,0-4.278-3.139,12.624,12.624,0,0,0-11.359,0A17.032,17.032,0,0,0,410.052,224.259Z" transform="translate(-384.643 -209.262)"/><path d="M684.812,333.16a1.576,1.576,0,0,1-1.467-2.149c2.153-5.505,3.5-13.176,4.013-22.8a1.575,1.575,0,1,1,3.146.168c-.531,9.96-1.952,17.96-4.225,23.778A1.576,1.576,0,0,1,684.812,333.16Z" transform="translate(-640.78 -292.432)"/></g></g></g></svg>