<svg width="420" height="420" viewBox="0 0 420 420" fill="none" xmlns="http://www.w3.org/2000/svg">
<g clip-path="url(#clip0_548_625)">
<g filter="url(#filter0_f_548_625)">
<path d="M366.187 291.7C366.187 294.278 365.511 296.811 364.226 299.046C362.942 301.281 361.093 303.139 358.865 304.436L216.769 387.168C214.518 388.479 211.96 389.169 209.355 389.169C206.75 389.169 204.192 388.479 201.94 387.168L59.8441 304.436C57.6163 303.139 55.7678 301.281 54.4831 299.046C53.1983 296.811 52.5223 294.278 52.5225 291.7V126.026C52.5223 123.449 53.1983 120.916 54.4831 118.681C55.7678 116.446 57.6163 114.587 59.8441 113.29L201.94 30.5586C204.192 29.248 206.75 28.5576 209.355 28.5576C211.96 28.5576 214.518 29.248 216.769 30.5586L358.865 113.29C361.093 114.587 362.942 116.446 364.226 118.681C365.511 120.916 366.187 123.449 366.187 126.026V291.7Z" fill="url(#paint0_linear_548_625)"/>
<path opacity="0.52" d="M366.187 291.7C366.187 294.278 365.511 296.811 364.226 299.046C362.942 301.281 361.093 303.139 358.865 304.436L216.769 387.168C214.518 388.479 211.96 389.169 209.355 389.169C206.75 389.169 204.192 388.479 201.94 387.168L59.8441 304.436C57.6163 303.139 55.7678 301.281 54.4831 299.046C53.1983 296.811 52.5223 294.278 52.5225 291.7V126.026C52.5223 123.449 53.1983 120.916 54.4831 118.681C55.7678 116.446 57.6163 114.587 59.8441 113.29L201.94 30.5586C204.192 29.248 206.75 28.5576 209.355 28.5576C211.96 28.5576 214.518 29.248 216.769 30.5586L358.865 113.29C361.093 114.587 362.942 116.446 364.226 118.681C365.511 120.916 366.187 123.449 366.187 126.026V291.7Z" fill="url(#paint1_linear_548_625)"/>
</g>
<path d="M363.714 288.263C363.715 290.795 363.051 293.283 361.789 295.478C360.527 297.673 358.711 299.499 356.523 300.773L216.952 382.034C214.741 383.322 212.228 384 209.669 384C207.111 384 204.598 383.322 202.387 382.034L62.8156 300.773C60.6274 299.499 58.8118 297.673 57.5498 295.478C56.2879 293.283 55.6239 290.795 55.6241 288.263V125.534C55.6239 123.002 56.2879 120.514 57.5498 118.319C58.8118 116.124 60.6274 114.298 62.8156 113.024L202.387 31.7625C204.598 30.4752 207.111 29.797 209.669 29.797C212.228 29.797 214.741 30.4752 216.952 31.7625L356.523 113.024C358.711 114.298 360.527 116.124 361.789 118.319C363.051 120.514 363.715 123.002 363.714 125.534V288.263Z" fill="url(#paint2_linear_548_625)"/>
<path d="M350.714 288.263V288.264C350.714 288.522 350.647 288.775 350.518 288.999C350.39 289.223 350.205 289.409 349.982 289.538L356.519 300.766L349.982 289.538L210.411 370.8C210.186 370.931 209.93 371 209.669 371C209.409 371 209.153 370.931 208.928 370.8L69.3566 289.538L63.0862 300.308L69.3565 289.538C69.1336 289.409 68.9487 289.223 68.8202 288.999C68.6917 288.775 68.6241 288.522 68.6241 288.264V288.263V125.534V125.533C68.6241 125.275 68.6917 125.021 68.8202 124.798C68.9488 124.574 69.1337 124.388 69.3565 124.259L62.8156 113.024L69.3566 124.258L208.928 42.9972C208.928 42.9971 208.928 42.9971 208.928 42.9971C209.153 42.866 209.409 42.797 209.669 42.797C209.93 42.797 210.186 42.866 210.411 42.9971C210.411 42.9971 210.411 42.9971 210.411 42.9972L349.982 124.258L349.982 124.259C350.205 124.388 350.39 124.574 350.518 124.798C350.647 125.021 350.714 125.275 350.714 125.533V125.534V288.263Z" stroke="#461B2A" stroke-opacity="0.01" stroke-width="26"/>
<path opacity="0.04" d="M99.0559 284.886C97.5816 285.676 95.9825 286.059 94.2586 286.037C92.5458 285.994 90.8765 285.523 89.2509 284.621C87.2288 283.501 85.7193 282.016 84.7224 280.168C83.7255 278.319 83.2954 276.267 83.4319 274.01C83.5883 271.764 84.3148 269.472 85.6115 267.132C86.8863 264.833 88.4235 263.041 90.2231 261.758C92.0536 260.466 94.0058 259.773 96.0796 259.679C98.1643 259.564 100.218 260.068 102.24 261.189C103.866 262.09 105.155 263.271 106.107 264.732C107.06 266.193 107.577 267.737 107.66 269.363L104.817 269.653C104.717 268.432 104.29 267.262 103.536 266.144C102.802 265.038 101.909 264.193 100.859 263.611C99.3717 262.786 97.849 262.448 96.2904 262.594C94.7428 262.721 93.2672 263.303 91.8636 264.339C90.4798 265.386 89.2879 266.812 88.2879 268.616C87.2659 270.459 86.6666 272.265 86.4899 274.033C86.3441 275.793 86.6164 277.382 87.3069 278.801C87.9973 280.221 89.086 281.342 90.5728 282.166C91.6235 282.749 92.8028 283.053 94.1105 283.078C95.4293 283.083 96.6685 282.811 97.8282 282.262L99.0559 284.886ZM122.107 285.457L127.498 275.733L130.055 277.151L117.527 299.751L114.97 298.334L120.772 287.866L109.205 281.454L103.402 291.921L100.845 290.504L113.372 267.904L115.93 269.321L110.54 279.045L122.107 285.457ZM130.628 293.212L126.128 301.331L137.576 307.677L136.225 310.115L122.218 302.351L134.746 279.751L148.366 287.301L147.014 289.739L135.952 283.607L131.963 290.804L142.4 296.589L141.065 298.998L130.628 293.212ZM155.871 321.005L152.868 319.341L152.526 306.633L151.99 306.337L147.827 304.029L142.519 313.604L139.962 312.187L152.489 289.587L158.942 293.164C161.658 294.669 163.431 296.403 164.261 298.366C165.091 300.329 164.923 302.362 163.758 304.463C162.879 306.049 161.718 307.116 160.274 307.663C158.85 308.221 157.215 308.248 155.37 307.744L155.871 321.005ZM152.866 303.635C154.809 304.711 156.488 305.189 157.904 305.066C159.339 304.955 160.408 304.265 161.112 302.996C161.848 301.668 161.888 300.356 161.233 299.059C160.609 297.754 159.325 296.564 157.383 295.487L153.695 293.443L149.179 301.591L152.866 303.635ZM174.718 331.453L171.715 329.788L171.373 317.081L170.837 316.784L166.674 314.476L161.366 324.051L158.809 322.634L171.336 300.034L177.789 303.611C180.505 305.116 182.278 306.85 183.108 308.813C183.938 310.776 183.77 312.809 182.605 314.91C181.726 316.496 180.565 317.563 179.121 318.11C177.697 318.668 176.062 318.695 174.217 318.191L174.718 331.453ZM171.713 314.082C173.656 315.159 175.335 315.636 176.751 315.513C178.186 315.402 179.255 314.712 179.959 313.443C180.695 312.115 180.735 310.803 180.08 309.506C179.456 308.202 178.172 307.011 176.23 305.934L172.542 303.89L168.026 312.038L171.713 314.082ZM187.379 326.536L187.233 308.846L190.207 310.494L190.049 324.595L190.198 324.678L202.072 317.071L205.046 318.719L189.966 327.97L184.906 337.1L182.319 335.666L187.379 326.536Z" fill="#F48FB1"/>
<path opacity="0.04" d="M243.568 315.66C245.255 315.01 246.803 314.904 248.212 315.341C249.62 315.778 250.715 316.7 251.495 318.108C252.66 320.209 252.788 322.264 251.879 324.271C250.959 326.258 249.051 328.054 246.157 329.658L239.318 333.449L226.79 310.849L233.6 307.074C236.137 305.668 238.37 305.091 240.299 305.344C242.216 305.577 243.686 306.615 244.708 308.459C245.378 309.668 245.603 310.891 245.381 312.128C245.149 313.345 244.512 314.463 243.469 315.482L243.568 315.66ZM230.699 311.87L234.639 318.977L238.623 316.768C240.368 315.801 241.535 314.727 242.124 313.545C242.713 312.363 242.677 311.178 242.018 309.988C241.425 308.918 240.483 308.364 239.193 308.328C237.912 308.261 236.389 308.716 234.624 309.694L230.699 311.87ZM244.449 327.417C246.59 326.231 248.032 324.952 248.775 323.581C249.518 322.21 249.505 320.831 248.736 319.443C248.033 318.174 246.925 317.531 245.412 317.514C243.909 317.467 242.096 318.031 239.975 319.207L235.99 321.415L240.523 329.593L244.449 327.417ZM249.211 298.421L260.387 318.583L271.627 312.352L272.979 314.79L259.181 322.439L246.654 299.839L249.211 298.421ZM284.402 309.003C282.38 310.124 280.352 310.626 278.317 310.509C276.272 310.373 274.354 309.648 272.563 308.334C270.773 307.02 269.223 305.184 267.916 302.825C266.597 300.446 265.855 298.149 265.69 295.934C265.525 293.719 265.932 291.718 266.911 289.931C267.89 288.145 269.391 286.691 271.413 285.57C273.435 284.449 275.463 283.947 277.497 284.063C279.531 284.18 281.444 284.895 283.235 286.209C285.026 287.523 286.58 289.369 287.899 291.748C289.207 294.107 289.943 296.394 290.108 298.609C290.274 300.824 289.872 302.835 288.904 304.641C287.925 306.428 286.424 307.882 284.402 309.003ZM283.05 306.564C284.517 305.751 285.597 304.66 286.29 303.291C286.982 301.923 287.241 300.38 287.067 298.662C286.901 296.914 286.296 295.098 285.252 293.215C284.208 291.332 282.995 289.866 281.611 288.819C280.236 287.741 278.784 287.134 277.257 286.996C275.729 286.858 274.231 287.195 272.764 288.008C271.278 288.833 270.188 289.929 269.495 291.298C268.803 292.666 268.549 294.219 268.735 295.957C268.909 297.674 269.518 299.474 270.562 301.358C271.606 303.241 272.816 304.722 274.191 305.8C275.555 306.858 277 307.456 278.528 307.594C280.056 307.732 281.563 307.389 283.05 306.564ZM313.408 287.754C313.296 289.423 312.774 290.982 311.841 292.432C310.898 293.862 309.613 295.028 307.987 295.929C305.965 297.05 303.906 297.543 301.81 297.409C299.715 297.275 297.746 296.552 295.905 295.241C294.083 293.918 292.524 292.087 291.227 289.748C289.952 287.448 289.248 285.195 289.113 282.989C288.988 280.752 289.434 278.729 290.453 276.921C291.461 275.092 292.976 273.617 294.998 272.496C296.624 271.595 298.309 271.128 300.052 271.094C301.796 271.061 303.38 271.44 304.803 272.232L303.543 274.796C302.453 274.234 301.235 273.976 299.888 274.023C298.56 274.06 297.371 274.369 296.32 274.951C294.833 275.775 293.739 276.887 293.038 278.287C292.325 279.667 292.037 281.226 292.171 282.965C292.326 284.694 292.903 286.46 293.903 288.264C294.925 290.108 296.139 291.573 297.545 292.66C298.96 293.716 300.452 294.327 302.021 294.494C303.591 294.66 305.119 294.331 306.606 293.507C307.657 292.925 308.539 292.086 309.253 290.99C309.957 289.874 310.383 288.679 310.532 287.405L313.408 287.754ZM335.743 280L332.412 281.846L316.896 276.296L316.337 278.162L321.677 287.796L319.12 289.214L306.592 266.614L309.15 265.196L314.507 274.861L318.903 259.79L322.383 257.861L317.721 273.507L335.743 280Z" fill="#F48FB1"/>
<path d="M210.045 260.901C204.249 269.212 195.8 275.306 186.086 278.185C176.371 281.063 165.966 280.554 156.578 276.742C147.19 272.93 139.377 266.04 134.419 257.204C129.461 248.367 127.654 238.108 129.293 228.109C130.933 218.11 135.921 208.966 143.441 202.175C150.961 195.384 160.566 191.35 170.679 190.735C180.793 190.12 190.815 192.961 199.102 198.79C207.39 204.62 213.45 213.093 216.288 222.82C221.121 218.272 227.258 215.353 233.836 214.473C240.414 213.594 247.102 214.798 252.96 217.916C258.818 221.034 263.552 225.91 266.495 231.858C269.439 237.806 270.445 244.526 269.371 251.075C268.297 257.624 265.198 263.672 260.509 268.368C255.821 273.065 249.778 276.174 243.231 277.258C236.683 278.343 229.961 277.348 224.008 274.414C218.056 271.48 213.172 266.754 210.045 260.901V260.901Z" fill="white"/>
<path d="M213.384 255.285C215.782 250.481 217.288 245.282 217.83 239.94C220.134 235.992 223.234 232.565 226.933 229.879C230.633 227.193 234.85 225.305 239.318 224.336C243.786 223.367 248.407 223.339 252.886 224.251C257.366 225.164 261.607 226.998 265.34 229.638C269.314 236.297 270.715 244.179 269.28 251.799C267.844 259.419 263.672 266.252 257.548 271.008C251.424 275.765 243.772 278.118 236.033 277.624C228.295 277.129 221.004 273.822 215.536 268.324C214.092 264.555 213.354 260.552 213.361 256.516C213.361 256.108 213.369 255.699 213.384 255.288V255.285Z" fill="url(#paint3_linear_548_625)"/>
<path d="M266.195 231.148C269.046 236.587 270.261 242.737 269.691 248.853C269.121 254.968 266.792 260.788 262.985 265.608C259.178 270.427 254.056 274.041 248.238 276.011C242.421 277.981 236.157 278.224 230.205 276.71C227.839 271.246 226.997 265.242 227.768 259.338C228.54 253.434 230.896 247.849 234.587 243.176C238.278 238.503 243.166 234.918 248.731 232.8C254.296 230.682 260.331 230.111 266.195 231.148Z" fill="url(#paint4_linear_548_625)"/>
<path d="M146.794 271.306C140.442 262.693 137.39 252.087 138.192 241.415C138.995 230.743 143.599 220.713 151.168 213.147C158.737 205.582 168.769 200.982 179.441 200.183C190.113 199.385 200.718 202.442 209.328 208.798C215.68 217.41 218.732 228.016 217.93 238.688C217.127 249.36 212.523 259.39 204.954 266.956C197.385 274.522 187.353 279.122 176.681 279.92C166.009 280.718 155.404 277.662 146.794 271.306V271.306Z" fill="url(#paint5_linear_548_625)"/>
<path d="M142.836 268.015C143.338 259.54 146.241 251.384 151.207 244.498C156.173 237.613 162.996 232.283 170.879 229.132C178.762 225.98 187.379 225.138 195.723 226.703C204.067 228.268 211.793 232.175 217.998 237.969C217.497 246.444 214.593 254.6 209.627 261.486C204.661 268.371 197.838 273.701 189.956 276.852C182.073 280.004 173.456 280.846 165.112 279.281C156.768 277.716 149.042 273.808 142.836 268.015V268.015Z" fill="url(#paint6_linear_548_625)"/>
<path d="M220.414 164.78C232.545 164.78 243.527 159.291 253.361 148.314C243.532 137.336 232.55 131.847 220.414 131.847C208.279 131.847 197.299 137.336 187.476 148.314C189.499 150.586 191.684 152.709 194.015 154.665C202.063 161.389 210.883 164.78 220.414 164.78Z" fill="url(#paint7_linear_548_625)"/>
<path d="M238.073 282.396C231.467 282.401 224.984 280.61 219.317 277.215C213.649 273.821 209.012 268.95 205.899 263.123L204.541 260.577L206.195 258.209C209.604 253.304 211.874 247.7 212.838 241.805C213.803 235.911 213.438 229.875 211.769 224.14L210.963 221.372L213.051 219.397C217.381 215.313 222.645 212.352 228.383 210.771C234.121 209.19 240.159 209.038 245.969 210.327C251.78 211.617 257.186 214.308 261.717 218.168C266.248 222.027 269.765 226.937 271.962 232.469C274.159 238 274.968 243.985 274.32 249.902C273.672 255.818 271.585 261.486 268.242 266.41C264.899 271.335 260.402 275.366 255.143 278.152C249.884 280.939 244.022 282.396 238.071 282.396H238.073ZM215.591 261.007C218.613 265.513 222.92 269.006 227.952 271.033C232.985 273.06 238.51 273.527 243.811 272.373C249.112 271.22 253.944 268.5 257.68 264.565C261.415 260.631 263.881 255.665 264.758 250.311C265.635 244.957 264.882 239.463 262.597 234.543C260.312 229.623 256.601 225.503 251.944 222.718C247.288 219.934 241.903 218.614 236.487 218.93C231.071 219.245 225.875 221.181 221.573 224.487C222.372 228.051 222.774 231.691 222.773 235.343C222.792 244.396 220.306 253.279 215.591 261.007V261.007Z" fill="#300F1A"/>
<path d="M238.072 281.968C231.544 281.973 225.136 280.204 219.535 276.849C213.934 273.494 209.35 268.68 206.274 262.921L213.816 258.882C216.522 263.952 220.748 268.047 225.902 270.59C231.056 273.134 236.877 273.997 242.548 273.06C248.218 272.123 253.452 269.432 257.513 265.366C261.574 261.3 264.259 256.063 265.189 250.391C266.12 244.72 265.249 238.9 262.7 233.749C260.15 228.598 256.05 224.376 250.977 221.677C245.903 218.977 240.111 217.936 234.415 218.699C228.718 219.463 223.405 221.992 219.221 225.933L213.354 219.707C217.634 215.671 222.836 212.745 228.507 211.182C234.178 209.62 240.146 209.47 245.888 210.745C251.631 212.019 256.974 214.68 261.452 218.495C265.93 222.31 269.405 227.163 271.576 232.63C273.746 238.097 274.546 244.013 273.904 249.86C273.262 255.707 271.199 261.309 267.895 266.175C264.59 271.042 260.145 275.025 254.946 277.778C249.748 280.531 243.955 281.97 238.072 281.969V281.968Z" fill="#300F1A"/>
<path d="M173.354 284.32C162.022 284.318 151.042 280.386 142.283 273.196C133.525 266.005 127.531 256 125.322 244.886C123.114 233.771 124.827 222.234 130.171 212.242C135.514 202.249 144.157 194.418 154.627 190.083C165.097 185.748 176.747 185.178 187.59 188.469C198.433 191.76 207.8 198.709 214.095 208.132C220.389 217.556 223.221 228.87 222.109 240.147C220.996 251.424 216.008 261.966 207.994 269.978C203.445 274.527 198.044 278.134 192.101 280.595C186.157 283.056 179.787 284.322 173.354 284.32V284.32ZM173.354 194.929C165.361 194.933 157.549 197.307 150.906 201.751C144.262 206.194 139.085 212.508 136.029 219.893C132.974 227.278 132.176 235.404 133.738 243.242C135.3 251.081 139.151 258.28 144.804 263.931C150.457 269.581 157.658 273.428 165.497 274.986C173.337 276.543 181.462 275.742 188.846 272.682C196.23 269.623 202.54 264.442 206.98 257.797C211.42 251.151 213.79 243.338 213.79 235.345C213.775 224.627 209.51 214.353 201.929 206.776C194.348 199.199 184.072 194.939 173.354 194.929V194.929Z" fill="#300F1A"/>
<path d="M179.824 220.799C178.913 220.823 178.021 220.535 177.296 219.982C176.571 219.43 176.057 218.647 175.838 217.762C175.67 216.884 175.824 215.974 176.272 215.2C176.72 214.426 177.432 213.839 178.277 213.546C200.269 205.302 219.724 191.451 234.711 173.368C248.927 156.215 259.503 135.043 266.12 110.443C266.433 109.442 267.118 108.599 268.035 108.089C268.951 107.578 270.028 107.439 271.044 107.701C271.544 107.795 272.02 107.99 272.442 108.274C272.864 108.558 273.225 108.925 273.501 109.352C273.777 109.78 273.964 110.258 274.05 110.76C274.136 111.262 274.119 111.775 274 112.27C267.103 137.88 256.052 159.983 241.162 177.962C225.279 197.113 204.667 211.779 181.368 220.507C180.876 220.698 180.352 220.797 179.824 220.799Z" fill="#300F1A"/>
<path d="M220.413 169.057C207.076 169.057 194.914 163.038 184.281 151.171L181.724 148.316L184.281 145.462C194.916 133.59 207.071 127.577 220.413 127.577C233.755 127.577 245.912 133.596 256.546 145.462L259.102 148.318L256.546 151.171C245.921 163.041 233.763 169.057 220.413 169.057ZM193.379 148.314C196.782 151.745 200.702 154.621 204.997 156.837C209.781 159.247 215.064 160.502 220.42 160.502C225.777 160.502 231.06 159.247 235.844 156.837C240.138 154.621 244.059 151.745 247.462 148.314C244.059 144.882 240.139 142.006 235.844 139.791C231.06 137.381 225.777 136.125 220.42 136.125C215.064 136.125 209.781 137.381 204.997 139.791C200.703 142.007 196.783 144.883 193.379 148.314V148.314Z" fill="#300F1A"/>
<path d="M243.953 218.188C243.257 218.187 242.572 218.017 241.957 217.692C241.341 217.366 240.815 216.896 240.422 216.321C240.03 215.746 239.784 215.085 239.705 214.393C239.626 213.702 239.718 213.001 239.971 212.353C245.818 197.403 249.476 176.572 250.869 150.437C250.898 149.876 251.038 149.327 251.281 148.82C251.523 148.313 251.863 147.859 252.28 147.483C252.698 147.108 253.186 146.818 253.715 146.631C254.245 146.444 254.806 146.363 255.367 146.393C255.928 146.423 256.478 146.563 256.985 146.805C257.491 147.048 257.946 147.387 258.321 147.805C258.697 148.223 258.986 148.711 259.173 149.24C259.36 149.77 259.441 150.331 259.411 150.892C257.97 177.939 254.111 199.664 247.935 215.464C247.623 216.266 247.075 216.955 246.365 217.441C245.654 217.927 244.814 218.187 243.953 218.188Z" fill="#300F1A"/>
</g>
<defs>
<filter id="filter0_f_548_625" x="31.5225" y="7.55756" width="355.665" height="402.611" filterUnits="userSpaceOnUse" color-interpolation-filters="sRGB">
<feFlood flood-opacity="0" result="BackgroundImageFix"/>
<feBlend mode="normal" in="SourceGraphic" in2="BackgroundImageFix" result="shape"/>
<feGaussianBlur stdDeviation="10.5" result="effect1_foregroundBlur_548_625"/>
</filter>
<linearGradient id="paint0_linear_548_625" x1="366.187" y1="208.863" x2="52.5225" y2="208.863" gradientUnits="userSpaceOnUse">
<stop stop-color="#FFE8F0"/>
<stop offset="1" stop-color="#F3F1F2"/>
</linearGradient>
<linearGradient id="paint1_linear_548_625" x1="366.187" y1="208.863" x2="52.5225" y2="208.863" gradientUnits="userSpaceOnUse">
<stop stop-color="#FFE8F0"/>
<stop offset="1" stop-color="#F3F1F2"/>
</linearGradient>
<linearGradient id="paint2_linear_548_625" x1="363.714" y1="206.898" x2="39.5" y2="207" gradientUnits="userSpaceOnUse">
<stop stop-color="#FFE8F0"/>
<stop offset="1" stop-color="#F3F1F2"/>
</linearGradient>
<linearGradient id="paint3_linear_548_625" x1="215.733" y1="247.121" x2="263.22" y2="266.574" gradientUnits="userSpaceOnUse">
<stop stop-color="#FFA1C1"/>
<stop offset="1" stop-color="#F48FB1"/>
</linearGradient>
<linearGradient id="paint4_linear_548_625" x1="229.268" y1="251.11" x2="266.236" y2="264.166" gradientUnits="userSpaceOnUse">
<stop stop-color="#EF7AA2"/>
<stop offset="1" stop-color="#F48FB1"/>
</linearGradient>
<linearGradient id="paint5_linear_548_625" x1="141.426" y1="234.853" x2="209.496" y2="261.57" gradientUnits="userSpaceOnUse">
<stop stop-color="#FFA1C1"/>
<stop offset="1" stop-color="#F48FB1"/>
</linearGradient>
<linearGradient id="paint6_linear_548_625" x1="145.993" y1="249.475" x2="202.897" y2="280.497" gradientUnits="userSpaceOnUse">
<stop stop-color="#EF7AA2"/>
<stop offset="1" stop-color="#F48FB1"/>
</linearGradient>
<linearGradient id="paint7_linear_548_625" x1="178.581" y1="141.299" x2="222.32" y2="185.907" gradientUnits="userSpaceOnUse">
<stop stop-color="#72C8F9"/>
<stop offset="0.59" stop-color="#70D8BA"/>
<stop offset="1" stop-color="#6CD8C6"/>
</linearGradient>
<clipPath id="clip0_548_625">
<rect width="420" height="420" fill="white"/>
</clipPath>
</defs>
</svg>
